<svg width="24" height="24" viewBox="0 0 24 24" fill="none" xmlns="http://www.w3.org/2000/svg">
<g clip-path="url(#clip0_80_46)">
<path d="M12 24C18.6274 24 24 18.6274 24 12C24 5.37258 18.6274 0 12 0C5.37258 0 0 5.37258 0 12C0 18.6274 5.37258 24 12 24Z" fill="#ffde59"/>
<path d="M15.4454 7.52598V5.35532C15.4454 5.35532 13.2267 5.33398 13.0774 5.33398C12.0747 5.33398 10.6347 6.47532 10.6347 7.77132V10.0967H8.55469V12.5607H10.6027V18.6673H13.0294V12.5287H15.1734L15.4454 10.1233H13.056V8.35798C13.056 7.93132 13.376 7.52065 13.856 7.52065C14.176 7.50998 15.4454 7.52598 15.4454 7.52598Z" fill="black"/>
</g>
<defs>
<clipPath id="clip0_80_46">
<rect width="24" height="24" fill="white"/>
</clipPath>
</defs>
</svg>
