<svg width="24" height="24" viewBox="0 0 24 24" fill="none" xmlns="http://www.w3.org/2000/svg">
<g clip-path="url(#clip0_80_57)">
<path d="M12 24C18.6274 24 24 18.6274 24 12C24 5.37258 18.6274 0 12 0C5.37258 0 0 5.37258 0 12C0 18.6274 5.37258 24 12 24Z" fill="#ffde59"/>
<path d="M15.0572 4H8.94278C6.21529 4 4 6.21529 4 8.94278V15.0572C4 17.7847 6.21529 20 8.94278 20H15.0572C17.7847 20 20 17.7847 20 15.0572V8.94278C20 6.21529 17.7847 4 15.0572 4ZM18.2137 15.0636C18.2137 16.8051 16.7987 18.2265 15.0508 18.2265H8.93637C7.19488 18.2265 5.77351 16.8115 5.77351 15.0636V8.94918C5.77351 7.20768 7.18847 5.78631 8.93637 5.78631H15.0508C16.7923 5.78631 18.2137 7.20128 18.2137 8.94918V15.0636Z" fill="black"/>
<path d="M11.9975 7.91211C9.74378 7.91211 7.90625 9.74964 7.90625 12.0033C7.90625 14.257 9.74378 16.0946 11.9975 16.0946C14.2512 16.0946 16.0887 14.257 16.0887 12.0033C16.0887 9.74964 14.2512 7.91211 11.9975 7.91211ZM11.9975 14.4875C10.6273 14.4875 9.51329 13.3735 9.51329 12.0033C9.51329 10.6332 10.6273 9.51915 11.9975 9.51915C13.3676 9.51915 14.4817 10.6332 14.4817 12.0033C14.4817 13.3735 13.3676 14.4875 11.9975 14.4875Z" fill="black"/>
<path d="M16.397 8.35929C16.7739 8.2979 17.0297 7.94258 16.9683 7.56565C16.9069 7.18873 16.5516 6.93293 16.1747 6.99432C15.7977 7.05571 15.542 7.41103 15.6033 7.78795C15.6647 8.16488 16.02 8.42067 16.397 8.35929Z" fill="black"/>
</g>
<defs>
<clipPath id="clip0_80_57">
<rect width="24" height="24" fill="white"/>
</clipPath>
</defs>
</svg>
